<svg enable-background="new 0 0 100 100" height="512" viewBox="0 0 100 100" width="512" xmlns="http://www.w3.org/2000/svg"><path d="m5.461808 17.287064h71.184853v20.566168h-71.184853z" fill="#344e5c"/><circle cx="12.794" cy="27.57" fill="#509fd7" r="2.765"/><circle cx="20.08" cy="27.57" fill="#f37735" r="2.765"/><path d="m69.0301437 24.8054619h-20.6801948c-1.5269279 0-2.7647018 1.237772-2.7647018 2.7646999 0 1.5268688 1.2377739 2.7646427 2.7647018 2.7646427h20.6801949c1.5269241 0 2.7646942-1.2377739 2.7646942-2.7646427 0-1.5269279-1.2377701-2.7646999-2.7646943-2.7646999z" fill="#304651"/><path d="m5.461808 39.716915h71.184853v20.566168h-71.184853z" fill="#344e5c"/><circle cx="12.794" cy="50" fill="#509fd7" r="2.765"/><circle cx="20.08" cy="50" fill="#f37735" r="2.765"/><path d="m69.0301437 47.2353134h-20.6801948c-1.5269279 0-2.7647018 1.2377739-2.7647018 2.764698 0 1.5268707 1.2377739 2.7646446 2.7647018 2.7646446h20.6801949c1.5269241 0 2.7646942-1.2377739 2.7646942-2.7646446 0-1.5269241-1.2377701-2.764698-2.7646943-2.764698z" fill="#304651"/><path d="m5.461808 62.146767h71.184853v20.566168h-71.184853z" fill="#344e5c"/><circle cx="12.794" cy="72.43" fill="#509fd7" r="2.765"/><circle cx="20.08" cy="72.43" fill="#f37735" r="2.765"/><g fill="#48b19a"><circle cx="27.366" cy="27.57" r="2.765"/><circle cx="27.366" cy="50" r="2.765"/><circle cx="27.366" cy="72.43" r="2.765"/></g><path d="m69.0301437 69.6651688h-20.6801948c-1.5269279 0-2.7647018 1.2377701-2.7647018 2.7646942 0 1.5268707 1.2377739 2.7646484 2.7647018 2.7646484h20.6801949c1.5269241 0 2.7646942-1.2377777 2.7646942-2.7646484 0-1.5269242-1.2377701-2.7646942-2.7646943-2.7646942z" fill="#304651"/><circle cx="76.647" cy="50" fill="#db584d" r="17.892"/><path d="m87.5677948 47.8209534-10.9211655-10.9211121-10.921112 10.9211121h5.5089798v15.2792053h10.8243255v-15.2792053z" fill="#ececec"/></svg>